<svg id="Layer_1" data-name="Layer 1" xmlns="http://www.w3.org/2000/svg" xmlns:xlink="http://www.w3.org/1999/xlink" viewBox="0 0 800 786.44"><defs><style>.cls-1{fill:url(#linear-gradient);}.cls-2{fill:#c4c4c4;}.cls-3{fill:#d34a6a;}</style><linearGradient id="linear-gradient" x1="471.02" y1="495.33" x2="845.56" y2="68.01" gradientTransform="matrix(1, 0, 0, -1, -199.37, 725.34)" gradientUnits="userSpaceOnUse"><stop offset="0" stop-color="#ffdbc5"/><stop offset="1" stop-color="#ffdbc5" stop-opacity="0"/></linearGradient></defs><circle class="cls-1" cx="411" cy="389" r="389"/><circle class="cls-2" cx="9.09" cy="646.52" r="9.09"/><circle class="cls-2" cx="9.09" cy="690.13" r="9.09"/><circle class="cls-2" cx="9.09" cy="733.75" r="9.09"/><circle class="cls-2" cx="9.09" cy="777.36" r="9.09"/><circle class="cls-2" cx="53.91" cy="646.52" r="9.09"/><circle class="cls-2" cx="53.91" cy="690.13" r="9.09"/><circle class="cls-2" cx="53.91" cy="733.75" r="9.09"/><circle class="cls-2" cx="53.91" cy="777.36" r="9.09"/><circle class="cls-2" cx="98.73" cy="646.52" r="9.09"/><circle class="cls-2" cx="98.73" cy="690.13" r="9.09"/><circle class="cls-2" cx="98.73" cy="733.75" r="9.09"/><circle class="cls-2" cx="98.73" cy="777.36" r="9.09"/><circle class="cls-2" cx="143.55" cy="646.52" r="9.09"/><circle class="cls-2" cx="143.55" cy="690.13" r="9.09"/><circle class="cls-2" cx="143.55" cy="733.75" r="9.09"/><circle class="cls-2" cx="143.55" cy="777.36" r="9.09"/><circle class="cls-2" cx="188.37" cy="646.52" r="9.09"/><circle class="cls-2" cx="188.37" cy="690.13" r="9.09"/><circle class="cls-2" cx="188.37" cy="733.75" r="9.09"/><circle class="cls-2" cx="387.74" cy="879.93" r="9.09" transform="matrix(0.16, -0.99, 0.99, 0.16, -742.3, 1019.14)"/><ellipse class="cls-3" cx="595.3" cy="43.34" rx="8.69" ry="9.06"/><ellipse class="cls-3" cx="595.3" cy="86.82" rx="8.69" ry="9.06"/><ellipse class="cls-3" cx="595.3" cy="130.3" rx="8.69" ry="9.06"/><ellipse class="cls-3" cx="595.3" cy="173.78" rx="8.69" ry="9.06"/><ellipse class="cls-3" cx="638.17" cy="43.34" rx="8.69" ry="9.06"/><ellipse class="cls-3" cx="638.17" cy="86.82" rx="8.69" ry="9.06"/><ellipse class="cls-3" cx="638.17" cy="130.3" rx="8.69" ry="9.06"/><ellipse class="cls-3" cx="638.17" cy="173.78" rx="8.69" ry="9.06"/><ellipse class="cls-3" cx="681.03" cy="43.34" rx="8.69" ry="9.06"/><ellipse class="cls-3" cx="681.03" cy="86.82" rx="8.69" ry="9.06"/><ellipse class="cls-3" cx="681.03" cy="130.3" rx="8.69" ry="9.06"/><ellipse class="cls-3" cx="681.03" cy="173.78" rx="8.69" ry="9.06"/><ellipse class="cls-3" cx="723.89" cy="43.34" rx="8.69" ry="9.06"/><ellipse class="cls-3" cx="723.89" cy="86.82" rx="8.69" ry="9.06"/><ellipse class="cls-3" cx="723.89" cy="130.3" rx="8.69" ry="9.06"/><ellipse class="cls-3" cx="723.89" cy="173.78" rx="8.69" ry="9.06"/><ellipse class="cls-3" cx="766.76" cy="43.34" rx="8.69" ry="9.06"/><ellipse class="cls-3" cx="766.76" cy="86.82" rx="8.69" ry="9.06"/><ellipse class="cls-3" cx="766.76" cy="130.3" rx="8.69" ry="9.06"/><ellipse class="cls-3" cx="766.76" cy="173.78" rx="8.69" ry="9.06"/></svg>