<svg xmlns="http://www.w3.org/2000/svg" xmlns:xlink="http://www.w3.org/1999/xlink" xmlns:svgjs="http://svgjs.com/svgjs" version="1.1" width="512" height="512" x="0" y="0" viewBox="0 0 512 512" style="enable-background:new 0 0 512 512" xml:space="preserve"><g><path xmlns="http://www.w3.org/2000/svg" d="M39.09,212.379H50.276a128.457,128.457,0,0,0,8.385,20.257l-7.906,7.906a39.09,39.09,0,0,0,55.282,55.282l7.906-7.907A128.264,128.264,0,0,0,134.2,296.3v11.187a39.155,39.155,0,0,0,31.091,38.264v30.106a32.818,32.818,0,1,0,39.828,39.828H307.792a25.814,25.814,0,0,0,25.02,19.6h3.929a76.831,76.831,0,0,0,3.092,7.47l-2.777,2.777A25.771,25.771,0,0,0,373.5,481.985l2.777-2.777a76.745,76.745,0,0,0,7.471,3.092v3.929a25.771,25.771,0,1,0,51.542,0V482.3a76.728,76.728,0,0,0,7.47-3.092l2.777,2.776a25.771,25.771,0,0,0,36.446-36.445l-2.777-2.777a76.934,76.934,0,0,0,3.092-7.47h3.929a25.772,25.772,0,0,0,0-51.543H482.3a76.728,76.728,0,0,0-3.092-7.47l2.777-2.777a25.771,25.771,0,0,0-36.446-36.446l-2.777,2.777a76.831,76.831,0,0,0-7.47-3.092v-3.929a25.812,25.812,0,0,0-19.6-25.02V205.117a32.818,32.818,0,1,0-39.827-39.828H345.753a39.155,39.155,0,0,0-38.264-31.09H296.3a128.368,128.368,0,0,0-8.385-20.256l7.907-7.906a39.09,39.09,0,0,0-55.282-55.282l-7.906,7.907a128.414,128.414,0,0,0-20.256-8.385V39.09a39.091,39.091,0,0,0-78.181,0V50.277a128.258,128.258,0,0,0-20.256,8.385l-7.906-7.907a39.09,39.09,0,0,0-55.282,55.282l7.907,7.906A128.4,128.4,0,0,0,50.276,134.2H39.09a39.09,39.09,0,0,0,0,78.18Zm256.733,28.163-7.906-7.906A128.359,128.359,0,0,0,296.3,212.38h11.187a39.156,39.156,0,0,0,38.264-31.091H375.86a32.93,32.93,0,0,0,23.827,23.828V309a25.808,25.808,0,0,0-15.937,23.817v3.929a76.745,76.745,0,0,0-7.471,3.092l-2.777-2.777A25.771,25.771,0,0,0,337.057,373.5l2.776,2.777a76.831,76.831,0,0,0-3.092,7.47h-3.929A25.809,25.809,0,0,0,309,399.687H205.118a32.933,32.933,0,0,0-23.828-23.828V345.753a39.154,39.154,0,0,0,31.089-38.264V296.3a128.379,128.379,0,0,0,20.257-8.385l7.906,7.907a39.09,39.09,0,0,0,55.281-55.282ZM173.29,424.505a16.818,16.818,0,1,1,16.818-16.818A16.837,16.837,0,0,1,173.29,424.505Zm246-91.693v9.826a8,8,0,0,0,5.953,7.733,60.867,60.867,0,0,1,14.987,6.2,8,8,0,0,0,9.676-1.26l6.945-6.945a9.771,9.771,0,0,1,13.818,13.818l-6.944,6.945a8,8,0,0,0-1.261,9.677,60.78,60.78,0,0,1,6.2,14.986,8,8,0,0,0,7.733,5.953h9.826a9.772,9.772,0,0,1,0,19.543H476.4a8,8,0,0,0-7.734,5.953,60.8,60.8,0,0,1-6.2,14.987,8,8,0,0,0,1.26,9.676l6.945,6.945a9.77,9.77,0,0,1-13.818,13.817l-6.945-6.944a8,8,0,0,0-9.676-1.26,60.849,60.849,0,0,1-14.988,6.2,8,8,0,0,0-5.952,7.733v9.826a9.771,9.771,0,1,1-19.542,0V476.4a8,8,0,0,0-5.954-7.734,60.8,60.8,0,0,1-14.987-6.2,8,8,0,0,0-9.676,1.26l-6.945,6.945a9.771,9.771,0,0,1-13.818-13.818l6.944-6.945a8,8,0,0,0,1.261-9.676,60.849,60.849,0,0,1-6.2-14.988,8,8,0,0,0-7.733-5.952h-9.826a9.772,9.772,0,0,1,0-19.543h9.826a8,8,0,0,0,7.733-5.953,60.829,60.829,0,0,1,6.2-14.987,8,8,0,0,0-1.26-9.676l-6.945-6.945a9.771,9.771,0,0,1,13.818-13.818l6.945,6.944a8,8,0,0,0,9.676,1.261,60.81,60.81,0,0,1,14.988-6.2,8,8,0,0,0,5.953-7.733v-9.826a9.771,9.771,0,1,1,19.542,0Zm-11.6-176.341a16.818,16.818,0,1,1-16.819,16.818A16.837,16.837,0,0,1,407.688,156.471ZM39.09,150.2H56.28a8,8,0,0,0,7.734-5.953,112.381,112.381,0,0,1,11.465-27.7,8,8,0,0,0-1.261-9.674L62.069,94.723A23.09,23.09,0,0,1,94.723,62.068l12.15,12.15a8,8,0,0,0,9.676,1.261,112.407,112.407,0,0,1,27.7-11.466A8,8,0,0,0,150.2,56.28V39.09a23.091,23.091,0,0,1,46.181,0V56.28a8,8,0,0,0,5.953,7.733,112.489,112.489,0,0,1,27.7,11.466,8,8,0,0,0,9.675-1.261l12.15-12.149a23.09,23.09,0,0,1,32.655,32.654l-12.15,12.15a8,8,0,0,0-1.26,9.676,112.417,112.417,0,0,1,11.465,27.7A8,8,0,0,0,290.3,150.2h17.19a23.091,23.091,0,0,1,0,46.181H290.3a8,8,0,0,0-7.734,5.953,112.387,112.387,0,0,1-11.465,27.7,8,8,0,0,0,1.261,9.675l12.149,12.148a23.091,23.091,0,1,1-32.655,32.655l-12.149-12.149a8,8,0,0,0-9.676-1.26,112.417,112.417,0,0,1-27.7,11.465,8,8,0,0,0-5.953,7.733v17.19a23.09,23.09,0,0,1-46.18,0V290.3a8,8,0,0,0-5.953-7.734,112.4,112.4,0,0,1-27.7-11.465,8,8,0,0,0-9.674,1.261L94.723,284.51a23.091,23.091,0,0,1-32.655-32.655l12.15-12.149a8,8,0,0,0,1.261-9.676,112.337,112.337,0,0,1-11.466-27.7,8,8,0,0,0-7.734-5.953H39.09a23.09,23.09,0,0,1,0-46.18Zm134.2,99.559a76.444,76.444,0,1,0-54.1-22.372A76.264,76.264,0,0,0,173.29,249.758ZM130.506,130.506a60.477,60.477,0,1,1,0,85.567A60.113,60.113,0,0,1,130.506,130.506Zm245.67,245.669a47.157,47.157,0,1,0,66.69,0A46.848,46.848,0,0,0,376.176,376.175Zm55.376,11.314a31.193,31.193,0,1,1-22.031-9.111A31.193,31.193,0,0,1,431.552,387.489Z" fill="#ffffff" data-original="#000000"/></g></svg>