<svg id="Layer_1" data-name="Layer 1" xmlns="http://www.w3.org/2000/svg" viewBox="0 0 308.66 245.49"><defs><style>.cls-1{fill:#977760;fill-rule:evenodd;}.cls-2{fill:#333;}</style></defs><path class="cls-1" d="M113.87,62a37,37,0,0,1-32,32v13.24A50.19,50.19,0,0,0,127.12,62Zm5.42,37.43A59.47,59.47,0,0,1,81.85,116.7v13.2A72.77,72.77,0,0,0,149.75,62h-13.2A59.35,59.35,0,0,1,119.29,99.43Zm16,16a81.85,81.85,0,0,1-53.39,23.92V152.5A95.31,95.31,0,0,0,172.35,62H159.17A81.9,81.9,0,0,1,135.24,115.39Zm16,16a104.4,104.4,0,0,1-69.35,30.57v13.17A117.87,117.87,0,0,0,194.94,62H181.76A104.3,104.3,0,0,1,151.2,131.34Zm16,16a126.85,126.85,0,0,1-85.31,37.19v13.17A140.44,140.44,0,0,0,217.52,62H204.35A126.87,126.87,0,0,1,167.16,147.3Zm16,16A149.39,149.39,0,0,1,81.85,207.07v13.17A163,163,0,0,0,240.1,62H226.93A149.37,149.37,0,0,1,183.11,163.26Zm16,16A171.89,171.89,0,0,1,81.85,229.65v13.17A185.58,185.58,0,0,0,262.67,62H249.5A171.83,171.83,0,0,1,199.07,179.21Zm-10.48,38.1A193.31,193.31,0,0,1,170,228.8a119,119,0,0,0-3.63,15.92,116.85,116.85,0,0,0-1.29,13.57h13.18A104.19,104.19,0,0,1,188.59,217.31Zm26.86-21.72a95.06,95.06,0,0,0-27.8,62.7h13.18A82.14,82.14,0,0,1,278.15,181V167.79A95,95,0,0,0,215.45,195.59Zm31.91,31.92a50.06,50.06,0,0,0-14.48,30.78h13.25a37,37,0,0,1,32-32V213A50,50,0,0,0,247.36,227.51Zm-23.91,30.78a59.58,59.58,0,0,1,54.7-54.7v-13.2a72.77,72.77,0,0,0-67.9,67.9Zm39.87-14.83a27.59,27.59,0,0,0-7.69,14.83h22.52V235.77A27.63,27.63,0,0,0,263.32,243.46ZM155.65,258.29a129.51,129.51,0,0,1,1.45-15q.71-4.5,1.7-8.88-7.16,3.3-14.62,6c-.52,3.25-.94,6.54-1.23,9.85-.23,2.58-.39,5.25-.48,8Zm-22.57,0q.13-4.35.54-8.8.25-2.88.62-5.71-6.75,2.07-13.68,3.65c-.2,2-.35,4.07-.47,6.07l-.2,4.79Zm-22.58,0,.23-5.3.24-3.64a195,195,0,0,1-29.12,2.87v6.07Zm126.67-89.55a104.12,104.12,0,0,1,41-10.36V145.2a119.07,119.07,0,0,0-13.57,1.3,116.11,116.11,0,0,0-15.93,3.63A194.45,194.45,0,0,1,237.17,168.74Zm26-31.5a129.67,129.67,0,0,1,15-1.44V122.62c-2.75.08-5.41.24-8,.47-3.31.3-6.6.71-9.85,1.24q-2.73,7.46-6,14.62Q258.64,137.95,263.14,137.24Zm6.2-23.48q4.46-.39,8.81-.54V100l-4.79.2c-2,.11-4,.27-6.08.46q-1.57,6.94-3.64,13.68Q266.47,114,269.34,113.76Zm3.51-22.89,5.3-.23V62h-6.07a196.5,196.5,0,0,1-2.87,29.12Zm-176.17-14A27.59,27.59,0,0,0,104.37,62H81.85V84.52A27.59,27.59,0,0,0,96.68,76.83Z" transform="translate(-25.67 -62)"/><path class="cls-2" d="M321.29,278.69v7.15h11.53v6.65H321.29v7.75h13v6.9H312.68V271.79h21.65v6.9Zm-37.87,9h5.33a4.84,4.84,0,0,0,3.55-1.16,4.32,4.32,0,0,0,1.19-3.27,4.19,4.19,0,0,0-1.19-3.17,4.88,4.88,0,0,0-3.55-1.16h-5.33Zm9.41,19.44-7.35-13.34h-2.06v13.34H274.8V271.79h14.46a15.78,15.78,0,0,1,7.12,1.46,10,10,0,0,1,4.41,4,11.14,11.14,0,0,1,1.46,5.67,10.47,10.47,0,0,1-2,6.29,10.66,10.66,0,0,1-5.86,3.93l8.15,14Zm-50.11-35.35v21.15a7,7,0,0,0,1.57,4.89,5.88,5.88,0,0,0,4.58,1.71,6.05,6.05,0,0,0,4.63-1.71,6.85,6.85,0,0,0,1.61-4.89V271.79h8.62v21.1a15,15,0,0,1-2,8,12.86,12.86,0,0,1-5.41,4.93,17,17,0,0,1-7.58,1.66,16.61,16.61,0,0,1-7.48-1.63,12.16,12.16,0,0,1-5.21-4.94,15.7,15.7,0,0,1-1.92-8v-21.1Zm-17.82,0v6.9h-9.37v28.45h-8.61V278.69h-9.37v-6.9Zm-36.72,0v35.35h-8.61V271.79Zm-19.89,35.35h-8.61l-14.4-21.8v21.8h-8.62V271.79h8.62l14.4,21.91V271.79h8.61ZM107.41,287.7h5.33a4.85,4.85,0,0,0,3.55-1.16,4.36,4.36,0,0,0,1.19-3.27,4.23,4.23,0,0,0-1.19-3.17,4.89,4.89,0,0,0-3.55-1.16h-5.33Zm9.41,19.44-7.35-13.34h-2.06v13.34H98.79V271.79h14.46a15.81,15.81,0,0,1,7.12,1.46,10,10,0,0,1,4.41,4,11.24,11.24,0,0,1,1.46,5.67,10.47,10.47,0,0,1-2,6.29,10.65,10.65,0,0,1-5.87,3.93l8.16,14ZM66.71,271.79v21.15a7,7,0,0,0,1.56,4.89,5.92,5.92,0,0,0,4.59,1.71,6.05,6.05,0,0,0,4.63-1.71,6.85,6.85,0,0,0,1.61-4.89V271.79h8.61v21.1a15,15,0,0,1-2,8,12.86,12.86,0,0,1-5.41,4.93,17,17,0,0,1-7.58,1.66,16.61,16.61,0,0,1-7.48-1.63A12.24,12.24,0,0,1,60,300.92a15.8,15.8,0,0,1-1.91-8v-21.1Zm-18,0v6.9H34.28v7.45H45.06v6.7H34.28v14.3H25.67V271.79Z" transform="translate(-25.67 -62)"/></svg>