<svg id="Layer_1" data-name="Layer 1" xmlns="http://www.w3.org/2000/svg" viewBox="0 0 196.29 196.29"><defs><style>.cls-1{fill:#977760;fill-rule:evenodd;}</style></defs><path class="cls-1" d="M114.17,92a37,37,0,0,1-32,32v13.24A50.19,50.19,0,0,0,127.42,92Zm5.41,37.43A59.42,59.42,0,0,1,82.15,146.7v13.2A72.77,72.77,0,0,0,150.05,92h-13.2A59.36,59.36,0,0,1,119.58,129.43Zm16,16a81.85,81.85,0,0,1-53.39,23.92V182.5A95.31,95.31,0,0,0,172.65,92H159.47A82,82,0,0,1,135.54,145.39Zm16,16a104.4,104.4,0,0,1-69.35,30.57v13.17A117.87,117.87,0,0,0,195.24,92H182.06A104.35,104.35,0,0,1,151.5,161.34Zm15.95,16a126.83,126.83,0,0,1-85.3,37.19v13.17A140.44,140.44,0,0,0,217.82,92H204.65A126.88,126.88,0,0,1,167.45,177.3Zm16,16A149.41,149.41,0,0,1,82.15,237.07v13.17A163,163,0,0,0,240.4,92H227.23A149.37,149.37,0,0,1,183.41,193.26Zm16,16A171.89,171.89,0,0,1,82.15,259.65v13.17A185.58,185.58,0,0,0,263,92H249.8A171.83,171.83,0,0,1,199.37,209.21Zm-10.48,38.1a194.54,194.54,0,0,1-18.61,11.49,119,119,0,0,0-3.63,15.92,116.85,116.85,0,0,0-1.29,13.57h13.17A104.2,104.2,0,0,1,188.89,247.31Zm26.86-21.72a95,95,0,0,0-27.8,62.7h13.18A82.14,82.14,0,0,1,278.44,211V197.79A95,95,0,0,0,215.75,225.59Zm31.91,31.92a50,50,0,0,0-14.48,30.78h13.24a37.06,37.06,0,0,1,32-32V243A50,50,0,0,0,247.66,257.51Zm-23.91,30.78a59.58,59.58,0,0,1,54.69-54.7v-13.2a72.75,72.75,0,0,0-67.89,67.9Zm39.87-14.83a27.53,27.53,0,0,0-7.69,14.83h22.51V265.77A27.6,27.6,0,0,0,263.62,273.46ZM156,288.29a129.51,129.51,0,0,1,1.45-15q.69-4.5,1.7-8.88-7.15,3.3-14.62,6c-.52,3.25-.94,6.54-1.23,9.85-.24,2.58-.4,5.25-.48,8Zm-22.58,0q.15-4.35.55-8.8c.17-1.92.37-3.82.62-5.71q-6.75,2.07-13.68,3.65c-.2,2-.35,4.07-.47,6.07l-.2,4.79Zm-22.57,0L111,283l.24-3.64a195.17,195.17,0,0,1-29.12,2.87v6.07Zm126.66-89.55a104.2,104.2,0,0,1,41-10.36V175.2a119.29,119.29,0,0,0-13.57,1.3A116.3,116.3,0,0,0,249,180.13,192.55,192.55,0,0,1,237.46,198.74Zm26-31.5a129.71,129.71,0,0,1,15-1.44V152.62c-2.74.08-5.41.24-8,.47-3.31.3-6.6.71-9.85,1.24q-2.73,7.46-6,14.62Q258.94,167.95,263.44,167.24Zm6.2-23.48q4.46-.39,8.8-.54V130l-4.78.2c-2,.11-4,.27-6.08.46q-1.57,6.95-3.64,13.68Q266.77,144,269.64,143.76Zm3.5-22.89,5.3-.23V92h-6.06a196.5,196.5,0,0,1-2.87,29.12ZM97,106.83A27.66,27.66,0,0,0,104.67,92H82.15v22.52A27.63,27.63,0,0,0,97,106.83Z" transform="translate(-82.15 -92)"/></svg>