<svg xmlns="http://www.w3.org/2000/svg" xmlns:xlink="http://www.w3.org/1999/xlink" xmlns:svgjs="http://svgjs.com/svgjs" version="1.1" width="512" height="512" x="0" y="0" viewBox="0 0 512 512" style="enable-background:new 0 0 512 512" xml:space="preserve" class=""><g><g xmlns="http://www.w3.org/2000/svg"><g><path d="m485.317 306.719c16.708-11.501 26.683-30.462 26.683-50.719s-9.975-39.218-26.682-50.719c-6.499-4.474-8.755-12.892-5.363-20.016 8.718-18.313 7.877-39.721-2.252-57.265-10.129-17.543-28.247-28.976-48.467-30.583-7.865-.625-14.028-6.787-14.653-14.652-1.606-20.22-13.039-38.338-30.583-48.467s-38.952-10.971-57.265-2.252c-7.128 3.392-15.543 1.135-20.016-5.363-11.501-16.708-30.461-26.683-50.719-26.683s-39.218 9.975-50.719 26.682c-4.474 6.5-12.891 8.755-20.016 5.363-18.313-8.718-39.721-7.876-57.265 2.252-17.544 10.129-28.976 28.248-30.583 48.467-.625 7.866-6.787 14.028-14.653 14.653-20.22 1.607-38.338 13.04-48.467 30.583-10.129 17.544-10.97 38.952-2.252 57.265 3.392 7.124 1.136 15.542-5.362 20.016-16.708 11.501-26.683 30.461-26.683 50.719s9.975 39.218 26.683 50.719c6.499 4.474 8.754 12.892 5.362 20.016-8.718 18.313-7.877 39.721 2.252 57.265s28.248 28.977 48.467 30.583c7.865.625 14.028 6.787 14.653 14.652.769 9.675 3.854 19.154 8.922 27.412 2.161 3.522 6.769 4.625 10.291 2.463 3.522-2.161 4.624-6.769 2.463-10.291-3.839-6.255-6.176-13.436-6.758-20.769-1.211-15.237-13.149-27.175-28.386-28.385-15.309-1.216-29.026-9.869-36.692-23.147s-8.301-29.484-1.7-43.35c6.57-13.801 2.201-30.108-10.39-38.775-12.65-8.709-20.202-23.061-20.202-38.393s7.553-29.684 20.204-38.392c12.59-8.667 16.959-24.975 10.389-38.775-6.602-13.867-5.966-30.072 1.7-43.35s21.383-21.931 36.692-23.147c15.237-1.21 27.175-13.148 28.386-28.386 1.216-15.309 9.869-29.026 23.147-36.692 13.278-7.667 29.483-8.301 43.35-1.7 13.799 6.569 30.109 2.201 38.775-10.39 8.708-12.65 23.061-20.203 38.392-20.203s29.684 7.552 38.392 20.203c8.667 12.591 24.974 16.96 38.775 10.39 13.867-6.602 30.073-5.967 43.35 1.7 13.278 7.666 21.931 21.383 23.147 36.693 1.211 15.237 13.149 27.175 28.386 28.385 15.31 1.216 29.027 9.869 36.693 23.147s8.301 29.484 1.7 43.35c-6.57 13.8-2.2 30.108 10.39 38.775 12.651 8.708 20.203 23.06 20.203 38.392s-7.553 29.684-20.203 38.393c-12.591 8.667-16.96 24.974-10.39 38.775 6.602 13.866 5.966 30.072-1.7 43.35s-21.383 21.931-36.692 23.147c-15.237 1.21-27.175 13.148-28.386 28.386-1.216 15.309-9.869 29.026-23.147 36.692-13.277 7.666-29.484 8.302-43.35 1.7-13.8-6.571-30.109-2.2-38.775 10.39-8.708 12.65-23.06 20.203-38.392 20.203s-29.685-7.552-38.392-20.203c-8.667-12.591-24.975-16.96-38.775-10.39-11.499 5.474-24.874 6.014-36.69 1.479-3.855-1.48-8.186.446-9.666 4.305-1.481 3.858.447 8.186 4.305 9.666 15.626 5.997 33.299 5.291 48.484-1.938 7.126-3.392 15.542-1.136 20.016 5.363 11.498 16.707 30.459 26.682 50.717 26.682s39.219-9.975 50.719-26.682c4.473-6.5 12.892-8.755 20.016-5.363 18.315 8.719 39.723 7.877 57.266-2.252 17.544-10.129 28.976-28.248 30.583-48.467.625-7.866 6.787-14.028 14.653-14.653 20.22-1.606 38.339-13.039 48.467-30.583 10.129-17.544 10.97-38.951 2.252-57.265-3.393-7.124-1.138-15.542 5.361-20.016z" fill="#ffffff" data-original="#000000" class=""/><path d="m436.235 255.769c0-99.382-80.853-180.235-180.235-180.235s-180.235 80.853-180.235 180.235 80.853 180.236 180.235 180.236 180.235-80.854 180.235-180.236zm-345.505 0c0-91.13 74.14-165.271 165.27-165.271s165.27 74.14 165.27 165.271-74.14 165.271-165.27 165.271-165.27-74.14-165.27-165.271z" fill="#ffffff" data-original="#000000" class=""/><path d="m353.911 172.282c-13.499-11.873-34.142-10.552-46.056 2.993l-24.753 28.603c-2.704 3.125-2.363 7.85.762 10.554 3.124 2.704 7.85 2.363 10.554-.762l24.713-28.558c6.425-7.303 17.593-8.018 24.896-1.594 7.304 6.424 8.019 17.592 1.562 24.933l-102.4 117.974c-3.349 3.807-8.177 5.99-13.245 5.99h-.115c-5.112-.032-9.952-2.278-13.28-6.16l-50.32-58.708c-3.067-3.577-4.556-8.134-4.195-12.832s2.531-8.974 6.109-12.041c3.577-3.067 8.134-4.557 12.832-4.195s8.974 2.531 12.041 6.109l31.491 36.74c1.418 1.654 3.485 2.607 5.664 2.613h.018c2.172 0 4.237-.943 5.658-2.586l35.742-41.302c2.704-3.125 2.363-7.85-.762-10.554-3.124-2.704-7.85-2.363-10.554.762l-30.056 34.732-25.837-30.144c-5.668-6.612-13.572-10.622-22.255-11.29-8.686-.667-17.107 2.085-23.72 7.753s-10.622 13.572-11.29 22.255c-.668 8.684 2.086 17.107 7.754 23.719l50.32 58.708c6.15 7.176 15.097 11.326 24.528 11.385l.229.001c9.369 0 18.292-4.035 24.514-11.107l102.401-117.973c11.872-13.5 10.55-34.144-2.95-46.018z" fill="#ffffff" data-original="#000000" class=""/></g></g></g></svg>