<?xml version="1.0" standalone="no"?>
<!DOCTYPE svg PUBLIC "-//W3C//DTD SVG 20010904//EN"
 "http://www.w3.org/TR/2001/REC-SVG-20010904/DTD/svg10.dtd">
<svg version="1.0" xmlns="http://www.w3.org/2000/svg"
 width="700.000000pt" height="700.000000pt" viewBox="0 0 700.000000 700.000000"
 preserveAspectRatio="xMidYMid meet">
<metadata>
Created by potrace 1.14, written by Peter Selinger 2001-2017
</metadata>
<g transform="translate(0.000000,700.000000) scale(0.100000,-0.100000)"
fill="#000000" stroke="none">
<path d="M0 6599 l0 -401 39 7 c61 10 199 62 267 100 114 64 214 150 311 268
68 82 159 281 177 390 l7 37 -401 0 -400 0 0 -401z"/>
<path d="M1949 6975 c-1 -14 -2 -28 -3 -32 -1 -5 -6 -35 -10 -68 -88 -683
-544 -1312 -1171 -1615 -209 -101 -436 -171 -645 -196 -25 -3 -54 -7 -65 -9
-11 -2 -28 -4 -37 -4 -17 -1 -18 -19 -18 -237 l0 -235 62 5 c616 57 1176 320
1608 755 139 140 213 231 317 386 243 363 385 763 428 1208 l7 67 -236 0 -236
0 -1 -25z"/>
<path d="M3559 6953 c-1 -27 -2 -59 -3 -73 -20 -201 -20 -202 -42 -335 -35
-214 -111 -498 -180 -674 -19 -47 -34 -89 -34 -93 0 -22 -155 -340 -227 -465
-110 -191 -269 -418 -402 -573 -125 -146 -357 -369 -520 -500 -304 -245 -739
-483 -1107 -605 -180 -60 -432 -126 -534 -140 -25 -3 -52 -8 -60 -10 -14 -4
-58 -10 -132 -20 -18 -3 -64 -7 -103 -11 -38 -3 -81 -8 -95 -9 -14 -2 -46 -4
-72 -4 l-48 -1 0 -236 0 -236 119 7 c65 3 129 8 142 10 22 3 44 6 167 21 26 3
126 21 222 40 540 107 1056 320 1510 622 63 42 120 80 125 84 6 4 55 42 110
85 292 223 539 472 793 798 4 6 44 62 89 125 156 223 293 466 393 695 28 66
56 129 61 140 37 82 126 348 167 505 47 179 92 418 107 572 3 29 7 62 10 73 2
11 7 73 11 138 l7 117 -237 0 -236 0 -1 -47z"/>
<path d="M5171 6918 c-1 -46 -4 -99 -6 -118 -2 -19 -6 -71 -10 -115 -7 -80
-11 -120 -20 -185 -3 -19 -7 -55 -10 -80 -3 -25 -7 -56 -10 -70 -3 -14 -7 -41
-10 -60 -10 -64 -34 -183 -61 -310 -49 -227 -187 -663 -265 -836 -10 -22 -28
-65 -39 -95 -38 -96 -185 -390 -265 -529 -190 -331 -433 -666 -673 -930 -180
-197 -444 -450 -577 -551 -16 -13 -32 -26 -35 -29 -42 -47 -589 -430 -614
-430 -2 0 -33 -17 -67 -39 -176 -106 -503 -263 -746 -357 -274 -106 -640 -212
-893 -259 -14 -3 -36 -7 -50 -10 -37 -8 -70 -13 -120 -20 -25 -3 -52 -8 -60
-10 -8 -2 -40 -7 -70 -10 -30 -3 -66 -8 -80 -10 -113 -16 -293 -31 -423 -36
l-67 -2 0 -233 c0 -246 -1 -238 40 -236 3 0 59 3 125 7 126 7 146 9 260 20 39
4 84 9 100 10 17 1 50 6 75 10 25 3 56 8 70 10 23 4 188 31 255 42 24 4 113
23 265 58 205 46 534 151 783 249 630 249 1170 581 1717 1054 75 65 404 392
470 468 25 28 58 66 74 84 24 27 156 191 227 280 63 79 218 305 296 430 172
276 253 430 411 780 29 66 100 244 129 325 13 39 27 77 30 85 4 8 7 17 8 20 1
3 17 52 35 110 19 58 35 110 36 115 2 6 19 69 38 140 30 108 53 204 82 340 9
43 18 93 34 185 19 113 26 154 36 230 10 82 12 98 20 180 3 41 8 83 10 93 2
10 6 78 9 150 4 73 7 134 7 137 2 29 -5 30 -236 30 l-233 0 -2 -82z"/>
<path d="M6968 5645 c-1 -1 -64 -6 -138 -10 -74 -4 -144 -8 -155 -10 -11 -1
-29 -3 -41 -4 -18 -1 -25 -17 -52 -128 -17 -71 -41 -162 -53 -203 -38 -135
-42 -151 -38 -154 2 -2 33 0 69 5 58 7 94 10 260 24 25 2 75 4 113 4 l67 1 0
234 c0 191 -3 235 -14 239 -8 3 -16 4 -18 2z"/>
<path d="M6817 4023 c-1 -1 -33 -4 -72 -8 -38 -3 -81 -8 -95 -10 -14 -2 -59
-9 -100 -14 -183 -26 -489 -94 -581 -129 -18 -7 -40 -35 -69 -89 -68 -123
-186 -318 -272 -446 -44 -65 -78 -121 -75 -123 2 -3 22 4 43 15 271 138 746
275 1094 317 36 4 67 8 70 9 3 1 58 5 123 9 l117 8 0 235 0 234 -91 -3 c-50
-2 -91 -4 -92 -5z"/>
<path d="M6907 2414 c-1 -1 -40 -7 -87 -13 -789 -100 -1495 -576 -1908 -1287
-34 -58 -74 -139 -143 -289 -76 -166 -164 -523 -184 -752 l-7 -73 236 0 236 0
1 23 c2 37 18 144 34 232 28 149 98 353 176 511 253 514 693 899 1233 1079
141 47 400 103 489 105 16 0 17 18 17 235 l0 236 -45 -2 c-25 -2 -46 -4 -48
-5z"/>
<path d="M3624 1342 c-88 -59 -233 -149 -321 -200 -161 -93 -165 -97 -178
-157 -2 -5 -12 -44 -23 -85 -42 -148 -90 -404 -107 -563 -4 -32 -8 -67 -10
-78 -2 -11 -7 -73 -11 -139 l-7 -120 237 0 236 0 1 43 c1 23 2 53 3 67 2 14 6
61 10 104 8 89 9 102 37 266 47 280 173 690 271 883 27 53 39 87 30 86 -4 0
-79 -49 -168 -107z"/>
<path d="M6955 795 c-5 -2 -41 -13 -80 -25 -245 -76 -450 -245 -573 -470 -41
-76 -85 -193 -97 -262 l-7 -38 401 0 401 0 0 400 c0 375 -1 400 -17 399 -10 0
-22 -2 -28 -4z"/>
<path d="M1735 479 c-71 -21 -139 -41 -150 -43 -119 -24 -205 -51 -206 -65 0
-9 -2 -27 -4 -41 -2 -14 -6 -88 -10 -165 -4 -77 -8 -144 -9 -150 0 -6 85 -11
235 -13 l236 -2 2 62 c5 126 24 353 37 431 2 15 3 27 2 26 -2 -1 -61 -18 -133
-40z"/>
</g>
</svg>
